PathFileType	4	(X/Y/Z)	 s05c0102.trc
DataRate	CameraRate	NumFrames	NumMarkers	Units	OrigDataRate	OrigDataStartFrame	OrigNumFrames
200	200	6	50	mm	200	751	2000
Frame#	Time	racr			lacr			c7			jug			rlel			rdr			llel			ldr			s2			lic			ric			lasi			rasi			rpsi			lpsi			rgt			lgt			rth1			rth2			rth3			rth4			rlfc			rmfc			rsh1			rsh2			rsh3			rsh4			rlmal			rmmal			rcal			rtoe			rmt5			lth1			lth2			lth4			lth3			llfc			lmfc			lsh1			lsh2			lsh3			lsh4			llmal			lmmal			lcal			ltoe			lmt5			SBIKE			LBIKE			RBIKE			
		X1	Y1	Z1	X2	Y2	Z2	X3	Y3	Z3	X4	Y4	Z4	X5	Y5	Z5	X6	Y6	Z6	X7	Y7	Z7	X8	Y8	Z8	X9	Y9	Z9	X10	Y10	Z10	X11	Y11	Z11	X12	Y12	Z12	X13	Y13	Z13	X14	Y14	Z14	X15	Y15	Z15	X16	Y16	Z16	X17	Y17	Z17	X18	Y18	Z18	X19	Y19	Z19	X20	Y20	Z20	X21	Y21	Z21	X22	Y22	Z22	X23	Y23	Z23	X24	Y24	Z24	X25	Y25	Z25	X26	Y26	Z26	X27	Y27	Z27	X28	Y28	Z28	X29	Y29	Z29	X30	Y30	Z30	X31	Y31	Z31	X32	Y32	Z32	X33	Y33	Z33	X34	Y34	Z34	X35	Y35	Z35	X36	Y36	Z36	X37	Y37	Z37	X38	Y38	Z38	X39	Y39	Z39	X40	Y40	Z40	X41	Y41	Z41	X42	Y42	Z42	X43	Y43	Z43	X44	Y44	Z44	X45	Y45	Z45	X46	Y46	Z46	X47	Y47	Z47	X48	Y48	Z48	X49	Y49	Z49	X50	Y50	Z50	
751	3.7550	442.546129	1311.904912	-145.716418	454.351950	1302.753806	-398.340542	424.542109	1383.464593	-287.132811	382.653198	1223.503430	-273.494189	476.248627	1074.427640	-13.751973	687.099220	941.213727	-72.445395	476.709606	1056.788834	-556.445372	693.416716	925.308136	-464.613037	-121.481197	1181.460285	-272.656289	20.896005	1182.681771	-419.675184	22.911441	1212.927928	-136.081324	67.910226	1128.823869	-381.939298	73.666479	1153.013467	-160.683557	-86.990887	1232.245643	-237.378949	-86.887831	1229.761584	-323.469214	-3.531535	1085.818632	-102.197115	-39.701652	1084.235223	-440.184774	99.003447	1014.963214	-97.683763	183.594354	986.447551	-100.163832	239.705719	918.932734	-108.340076	202.641652	1015.836072	-112.611706	359.072242	827.889053	-139.901458	337.984356	817.971389	-248.471398	309.844296	729.834939	-105.931791	310.076562	641.304957	-114.271308	270.740742	565.315487	-112.045652	338.622477	636.522726	-140.537708	238.975602	435.507209	-111.355777	248.050815	460.744924	-192.851229	169.782827	396.022244	-153.271485	466.872390	396.219436	-145.928239	366.397744	367.862368	-81.737056	65.654776	986.543057	-447.849617	143.368039	950.345654	-440.439470	166.000798	975.160677	-424.198319	193.868338	875.389321	-441.191371	281.768155	753.109535	-414.434235	260.146734	739.306059	-306.221723	193.873304	660.927346	-445.571265	155.064954	583.775840	-433.682353	81.203062	534.019282	-436.045545	177.735627	566.164977	-408.122327	5.380789	440.633358	-433.470343	41.580312	449.409392	-356.872396	-65.706445	441.873969	-388.426665	154.033946	244.034394	-397.810285	52.419620	290.545883	-457.590648	-214.751901	913.897173	-269.233429	-43.735505	84.762685	-475.201791	-51.976721	80.255914	-77.478750	
752	3.7600	443.058718	1312.598835	-145.710890	454.356737	1303.363879	-398.314770	424.716698	1383.982601	-287.146922	382.728304	1224.189102	-273.354497	476.815261	1075.189247	-13.608141	687.206834	941.336120	-72.397973	476.750254	1057.332922	-555.785946	693.255380	925.090538	-464.297559	-121.075767	1181.628753	-271.695979	20.784784	1183.461148	-419.112805	23.519245	1212.822784	-135.446533	67.871363	1129.516094	-381.462603	74.454402	1153.024101	-160.215286	-86.559627	1232.300215	-236.341924	-86.717801	1230.368578	-322.664988	-2.870478	1085.074421	-101.804495	-39.405277	1085.245872	-439.850496	99.155042	1012.816293	-97.390315	183.202112	982.854027	-99.960865	238.127710	914.442510	-108.376355	202.742212	1011.981210	-112.249579	356.578415	821.949595	-140.400389	334.977274	812.427497	-248.218302	308.389476	723.874414	-105.720071	309.749805	635.460517	-113.990909	271.322749	558.962442	-111.843179	338.057222	630.632387	-140.382267	240.976330	428.612562	-111.219195	249.873739	453.882295	-192.660449	171.793003	389.402435	-153.120680	468.880838	388.298106	-145.989737	368.295116	360.518150	-81.793919	66.965958	988.640015	-447.582080	145.054500	953.298897	-440.315600	167.370509	978.298851	-424.078453	196.321435	878.892625	-441.114541	285.300897	757.261265	-414.675526	264.237132	743.423170	-307.164217	196.602996	666.169238	-445.730601	156.847854	589.473618	-433.877823	82.388650	540.601129	-436.230901	179.330743	571.574140	-408.300077	5.342749	448.296136	-433.559861	41.717065	456.832344	-356.965539	-65.872571	450.291857	-388.767165	152.392185	250.701308	-397.798701	51.056995	297.909180	-457.640980	-214.714956	913.935708	-269.185922	-43.721202	84.778613	-475.190737	-51.923022	80.090568	-77.626070	
753	3.7650	443.519780	1313.440330	-145.747010	454.100143	1304.055412	-398.079801	424.886955	1384.537197	-287.165208	382.789610	1224.757568	-273.095782	477.352967	1075.946850	-13.415484	687.327952	941.439716	-72.384868	476.805759	1057.866652	-555.135158	693.255800	925.118450	-464.143534	-120.635473	1181.732291	-270.786101	20.676871	1184.209252	-418.458080	24.041484	1212.834800	-134.768727	68.279855	1130.924455	-381.683569	75.189558	1152.889979	-159.665925	-86.065956	1232.232548	-235.282996	-86.687732	1230.715681	-321.713004	-2.385754	1084.297157	-101.439504	-39.091337	1086.209617	-439.480721	99.190116	1010.642445	-97.098052	182.650129	979.190925	-99.795958	236.434794	909.895473	-108.374181	202.739220	1008.012443	-111.893743	353.807256	816.635781	-139.961420	332.277002	806.993696	-248.452113	306.491227	717.896358	-105.128988	309.175194	629.519223	-113.767709	271.549375	552.646139	-111.603407	337.024310	625.326144	-140.377565	242.710941	421.791593	-111.042267	251.559993	447.630982	-192.296289	173.511533	382.904309	-152.909726	470.618796	380.323230	-146.154415	370.002665	352.968172	-81.879977	68.263412	990.608094	-447.430492	146.811811	956.187508	-440.257815	168.916876	981.429281	-424.087338	199.117263	882.581761	-441.615391	289.032059	761.761886	-415.022502	268.123495	747.758672	-307.473331	199.584270	671.534319	-445.858906	158.618491	595.198420	-433.458972	83.922743	547.328099	-436.297574	181.411917	577.367313	-408.666887	5.698613	455.916971	-433.679155	42.164391	464.289060	-356.974666	-65.634255	458.716765	-388.706659	151.037277	257.318566	-397.803193	50.074146	305.312097	-457.588025	-214.660713	913.971500	-269.134539	-43.705188	84.815153	-475.185905	-51.923604	80.099912	-77.625527	
754	3.7700	443.992780	1314.165741	-145.627028	453.959731	1304.735373	-397.847244	425.070106	1385.185919	-287.067359	382.948657	1225.409729	-272.861454	477.987883	1076.630635	-13.128398	687.436576	941.555323	-72.342359	476.863527	1058.422115	-554.433806	693.260366	925.169179	-463.968454	-120.269947	1181.811688	-269.838437	20.613965	1184.791825	-417.759258	24.720797	1212.591403	-133.997766	68.421107	1131.423665	-381.225199	76.000146	1152.624777	-159.043623	-85.573687	1232.162398	-234.237544	-86.527343	1230.873336	-320.509093	-1.790644	1083.249591	-100.998963	-38.739083	1087.074701	-439.075931	99.113690	1008.414199	-96.746101	182.007182	975.629462	-99.508652	234.538115	905.344728	-108.377568	202.588692	1004.012943	-111.514959	350.929947	811.088423	-139.682566	331.810937	801.668858	-248.636426	304.746466	711.908744	-104.693728	308.341066	623.716946	-112.935287	271.545629	546.214478	-111.269274	336.055246	619.580286	-140.272605	244.235957	415.005304	-110.922422	252.901512	439.897867	-192.361383	174.928326	376.404188	-152.720444	472.070571	372.149839	-146.255282	371.327029	345.522468	-81.928986	69.550427	992.462330	-447.375734	148.509918	959.048955	-440.298554	170.307958	984.561933	-424.275603	201.786862	886.159515	-441.812749	292.852730	766.325354	-415.417289	271.296407	751.725970	-307.242393	202.605180	677.030314	-445.653079	160.974441	601.222855	-433.520348	85.723469	554.202912	-436.300450	183.621303	582.969877	-408.780693	6.327938	463.765309	-433.631133	42.954651	471.736715	-356.914184	-65.069954	467.144704	-388.562137	150.067653	264.016006	-397.720976	49.426707	312.930829	-457.519287	-214.631826	913.987561	-269.083415	-43.700531	84.846188	-475.170609	-51.915155	80.081352	-77.618213	
755	3.7750	444.480785	1314.922466	-145.395013	453.761482	1305.376521	-397.550766	425.268442	1385.829650	-286.804159	383.100029	1226.139981	-272.588499	478.239629	1077.120363	-13.122773	687.568184	941.676171	-72.262862	476.957548	1059.056470	-553.707840	693.267238	925.237413	-463.763850	-119.887607	1181.755792	-268.853709	20.632164	1185.366957	-417.003602	25.357650	1212.237657	-133.252382	68.544010	1132.083337	-380.722145	76.751544	1152.330494	-158.436807	-85.158455	1232.067821	-233.168307	-86.371097	1231.153648	-319.588804	-1.309726	1082.225660	-100.595160	-38.373602	1087.904482	-438.695151	98.895074	1006.073403	-96.349190	181.224742	971.826273	-99.131668	232.517513	900.792240	-108.171452	202.306985	999.970255	-111.034365	347.932982	805.484155	-139.319085	328.053352	795.705656	-248.067109	302.816729	705.931833	-104.180878	307.284200	617.771905	-112.487264	271.327197	539.839333	-110.841481	334.973885	613.995900	-140.105629	245.517753	408.234762	-110.749272	253.935944	433.027970	-192.097075	176.059738	370.037320	-152.442320	473.313519	363.679013	-146.685283	372.386851	337.815684	-82.015489	70.776512	994.215291	-447.429904	150.256036	961.865134	-440.574219	171.653367	987.697752	-424.493272	204.502977	889.645595	-442.053829	296.808607	771.003020	-415.800452	276.644238	756.268903	-308.177665	206.060872	682.631679	-445.830567	163.603001	607.316920	-433.598413	87.781120	561.176428	-436.209082	185.957930	588.527845	-408.909764	7.234857	471.607955	-433.574328	44.007244	479.315892	-356.811907	-64.161709	475.634072	-388.394023	149.360286	270.825428	-397.688043	49.171987	320.526734	-457.413129	-214.594453	913.988551	-269.014135	-43.702295	84.788841	-475.133510	-51.904223	80.097770	-77.622897	
756	3.7800	444.910238	1315.682048	-145.062081	453.625269	1306.117270	-397.250608	425.471647	1386.323867	-286.431058	383.348513	1226.784587	-272.182443	478.845492	1077.711249	-12.874104	688.148033	941.775044	-72.028479	477.047992	1059.635825	-553.029285	693.295494	925.308467	-463.614415	-119.332256	1181.724818	-267.946874	20.708286	1186.128022	-416.435299	26.094604	1211.853405	-132.381768	68.800216	1132.587861	-380.279110	77.492442	1151.896060	-157.730043	-85.016131	1232.101940	-232.710444	-86.142992	1231.274435	-318.410944	-0.835113	1081.156214	-100.128210	-37.926506	1088.616919	-438.194553	98.561944	1003.741738	-95.950559	180.246342	968.138926	-98.699500	230.371525	896.194566	-107.885916	201.864012	995.956544	-110.456827	345.309139	799.824851	-138.359336	322.837580	789.626634	-246.938970	300.608413	699.790760	-103.492669	306.112182	611.680897	-112.060249	270.802178	533.336009	-110.199058	333.548412	608.314846	-139.786294	246.527001	401.442403	-110.535396	254.794236	426.321800	-191.615495	176.889009	363.667867	-152.168904	474.133342	355.350132	-146.680701	373.188303	330.157113	-82.093361	71.947108	995.871572	-447.567110	151.874269	964.737123	-440.943427	173.006146	990.859792	-425.005884	207.244303	893.268327	-442.569192	300.807456	775.914918	-416.292941	280.176017	761.190803	-308.469812	209.762144	688.548569	-446.537583	166.361418	613.572482	-433.681773	90.025323	568.216405	-436.120252	188.556594	594.557146	-409.003363	8.425467	479.592843	-433.416863	46.089859	486.631293	-356.729311	-63.063026	484.111844	-388.164721	148.983949	277.774892	-397.643658	49.204422	328.241243	-457.217087	-214.569512	914.002668	-268.992996	-43.687213	84.870425	-475.158452	-51.905995	80.109739	-77.605044	
